HIERARCHY
ROOT Hips
{
    OFFSET 0.000000 0.000000 0.000000
    CHANNELS 6 Xposition Yposition Zposition Zrotation Xrotation Yrotation
    JOINT Spine
    {
        OFFSET 0.000002 7.164412 0.000002
        CHANNELS 3 Zrotation Xrotation Yrotation
        JOINT Spine1
        {
            OFFSET -0.000001 20.126801 -0.000002
            CHANNELS 3 Zrotation Xrotation Yrotation
            JOINT Neck
            {
                OFFSET 0.000000 21.094069 0.000000
                CHANNELS 3 Zrotation Xrotation Yrotation
                JOINT Head
                {
                    OFFSET -0.000001 12.838277 1.776080
                    CHANNELS 3 Zrotation Xrotation Yrotation
                    End Site
                    {
                        OFFSET 0.000000 17.760757 0.000000
                    }
                }
            }
            JOINT LeftShoulder
            {
                OFFSET 3.550527 15.465700 -0.908803
                CHANNELS 3 Zrotation Xrotation Yrotation
                JOINT LeftArm
                {
                    OFFSET 12.513296 -0.000006 -0.000002
                    CHANNELS 3 Zrotation Xrotation Yrotation
                    JOINT LeftForeArm
                    {
                        OFFSET 24.225996 -0.000003 0.000001
                        CHANNELS 3 Zrotation Xrotation Yrotation
                        JOINT LeftHand
                        {
                            OFFSET 20.711399 -0.000005 -0.000004
                            CHANNELS 3 Zrotation Xrotation Yrotation
                            JOINT LeftHandThumb1
                            {
                                OFFSET 2.121969 -2.411331 3.375859
                                CHANNELS 3 Zrotation Xrotation Yrotation
                                JOINT LeftHandThumb2
                                {
                                    OFFSET 2.803208 0.000003 0.000001
                                    CHANNELS 3 Zrotation Xrotation Yrotation
                                    JOINT LeftHandThumb3
                                    {
                                        OFFSET 2.395929 0.000004 -0.000003
                                        CHANNELS 3 Zrotation Xrotation Yrotation
                                        End Site
                                        {
                                            OFFSET 2.127676 0.000000 0.000000
                                        }
                                    }
                                }
                            }
                            JOINT LeftHandIndex1
                            {
                                OFFSET 8.680775 0.000005 3.375860
                                CHANNELS 3 Zrotation Xrotation Yrotation
                                JOINT LeftHandIndex2
                                {
                                    OFFSET 4.218178 -0.000000 -0.000000
                                    CHANNELS 3 Zrotation Xrotation Yrotation
                                    JOINT LeftHandIndex3
                                    {
                                        OFFSET 2.109086 -0.000004 0.000002
                                        CHANNELS 3 Zrotation Xrotation Yrotation
                                        End Site
                                        {
                                            OFFSET 1.872952 0.000000 0.000000
                                        }
                                    }
                                }
                            }
                            JOINT LeftHandMiddle1
                            {
                                OFFSET 8.680778 -0.000002 1.118860
                                CHANNELS 3 Zrotation Xrotation Yrotation
                                JOINT LeftHandMiddle2
                                {
                                    OFFSET 4.640003 -0.000004 -0.000001
                                    CHANNELS 3 Zrotation Xrotation Yrotation
                                    JOINT LeftHandMiddle3
                                    {
                                        OFFSET 2.530911 0.000002 -0.000001
                                        CHANNELS 3 Zrotation Xrotation Yrotation
                                        End Site
                                        {
                                            OFFSET 2.247544 0.000000 0.000000
                                        }
                                    }
                                }
                            }
                            JOINT LeftHandRing1
                            {
                                OFFSET 8.198517 0.000004 -1.118860
                                CHANNELS 3 Zrotation Xrotation Yrotation
                                JOINT LeftHandRing2
                                {
                                    OFFSET 4.218183 -0.000002 -0.000002
                                    CHANNELS 3 Zrotation Xrotation Yrotation
                                    JOINT LeftHandRing3
                                    {
                                        OFFSET 2.109094 0.000005 -0.000000
                                        CHANNELS 3 Zrotation Xrotation Yrotation
                                        End Site
                                        {
                                            OFFSET 1.872952 0.000000 0.000000
                                        }
                                    }
                                }
                            }
                            JOINT LeftHandPinky1
                            {
                                OFFSET 7.716254 0.000002 -3.375863
                                CHANNELS 3 Zrotation Xrotation Yrotation
                                JOINT LeftHandPinky2
                                {
                                    OFFSET 3.374536 0.000002 0.000001
                                    CHANNELS 3 Zrotation Xrotation Yrotation
                                    JOINT LeftHandPinky3
                                    {
                                        OFFSET 1.687274 -0.000002 -0.000004
                                        CHANNELS 3 Zrotation Xrotation Yrotation
                                        End Site
                                        {
                                            OFFSET 1.498360 0.000000 0.000000
                                        }
                                    }
                                }
                            }
                        }
                    }
                }
            }
            JOINT RightShoulder
            {
                OFFSET -3.550529 15.465699 -0.908801
                CHANNELS 3 Zrotation Xrotation Yrotation
                JOINT RightArm
                {
                    OFFSET -12.513299 -0.000001 -0.000000
                    CHANNELS 3 Zrotation Xrotation Yrotation
                    JOINT RightForeArm
                    {
                        OFFSET -24.226000 -0.000003 -0.000001
                        CHANNELS 3 Zrotation Xrotation Yrotation
                        JOINT RightHand
                        {
                            OFFSET -20.711397 -0.000003 -0.000002
                            CHANNELS 3 Zrotation Xrotation Yrotation
                            JOINT RightHandThumb1
                            {
                                OFFSET -2.121970 -2.411331 3.375859
                                CHANNELS 3 Zrotation Xrotation Yrotation
                                JOINT RightHandThumb2
                                {
                                    OFFSET -2.803209 -0.000004 0.000004
                                    CHANNELS 3 Zrotation Xrotation Yrotation
                                    JOINT RightHandThumb3
                                    {
                                        OFFSET -2.395928 0.000004 -0.000003
                                        CHANNELS 3 Zrotation Xrotation Yrotation
                                        End Site
                                        {
                                            OFFSET -2.127676 0.000000 0.000000
                                        }
                                    }
                                }
                            }
                            JOINT RightHandIndex1
                            {
                                OFFSET -8.680779 0.000001 3.375859
                                CHANNELS 3 Zrotation Xrotation Yrotation
                                JOINT RightHandIndex2
                                {
                                    OFFSET -4.218179 0.000003 -0.000001
                                    CHANNELS 3 Zrotation Xrotation Yrotation
                                    JOINT RightHandIndex3
                                    {
                                        OFFSET -2.109090 -0.000002 0.000000
                                        CHANNELS 3 Zrotation Xrotation Yrotation
                                        End Site
                                        {
                                            OFFSET -1.872952 0.000000 0.000000
                                        }
                                    }
                                }
                            }
                            JOINT RightHandMiddle1
                            {
                                OFFSET -8.680779 -0.000002 1.118859
                                CHANNELS 3 Zrotation Xrotation Yrotation
                                JOINT RightHandMiddle2
                                {
                                    OFFSET -4.639998 0.000003 -0.000001
                                    CHANNELS 3 Zrotation Xrotation Yrotation
                                    JOINT RightHandMiddle3
                                    {
                                        OFFSET -2.530910 -0.000000 -0.000000
                                        CHANNELS 3 Zrotation Xrotation Yrotation
                                        End Site
                                        {
                                            OFFSET -2.247544 0.000000 0.000000
                                        }
                                    }
                                }
                            }
                            JOINT RightHandRing1
                            {
                                OFFSET -8.198519 -0.000004 -1.118859
                                CHANNELS 3 Zrotation Xrotation Yrotation
                                JOINT RightHandRing2
                                {
                                    OFFSET -4.218180 -0.000005 0.000000
                                    CHANNELS 3 Zrotation Xrotation Yrotation
                                    JOINT RightHandRing3
                                    {
                                        OFFSET -2.109090 0.000002 0.000002
                                        CHANNELS 3 Zrotation Xrotation Yrotation
                                        End Site
                                        {
                                            OFFSET -1.872952 0.000000 0.000000
                                        }
                                    }
                                }
                            }
                            JOINT RightHandPinky1
                            {
                                OFFSET -7.716249 0.000004 -3.375858
                                CHANNELS 3 Zrotation Xrotation Yrotation
                                JOINT RightHandPinky2
                                {
                                    OFFSET -3.374539 0.000003 -0.000000
                                    CHANNELS 3 Zrotation Xrotation Yrotation
                                    JOINT RightHandPinky3
                                    {
                                        OFFSET -1.687270 -0.000004 -0.000001
                                        CHANNELS 3 Zrotation Xrotation Yrotation
                                        End Site
                                        {
                                            OFFSET -1.498360 0.000000 0.000000
                                        }
                                    }
                                }
                            }
                        }
                    }
                }
            }
        }
    }
    JOINT LeftUpLeg
    {
        OFFSET 8.880377 0.000003 0.000001
        CHANNELS 3 Zrotation Xrotation Yrotation
        JOINT LeftLeg
        {
            OFFSET -0.000000 -40.387413 0.000001
            CHANNELS 3 Zrotation Xrotation Yrotation
            JOINT LeftFoot
            {
                OFFSET -0.000000 -36.911304 0.000000
                CHANNELS 3 Zrotation Xrotation Yrotation
                JOINT LeftToeBase
                {
                    OFFSET 0.000003 -5.772240 13.320597
                    CHANNELS 3 Zrotation Xrotation Yrotation
                    End Site
                    {
                        OFFSET 0.000000 0.000000 3.552151
                    }
                }
            }
        }
    }
    JOINT RightUpLeg
    {
        OFFSET -8.880380 -0.000003 -0.000001
        CHANNELS 3 Zrotation Xrotation Yrotation
        JOINT RightLeg
        {
            OFFSET 0.000001 -40.387405 0.000000
            CHANNELS 3 Zrotation Xrotation Yrotation
            JOINT RightFoot
            {
                OFFSET -0.000001 -36.911304 -0.000001
                CHANNELS 3 Zrotation Xrotation Yrotation
                JOINT RightToeBase
                {
                    OFFSET 0.000000 -5.772241 13.320600
                    CHANNELS 3 Zrotation Xrotation Yrotation
                    End Site
                    {
                        OFFSET 0.000000 0.000000 3.552151
                    }
                }
            }
        }
    }
}
MOTION
Frames: 4
Frame Time: 0.013889
1.861734    77.664444    -13.900735    12.397092    1.640305    -6.740022    -0.041972    -8.894858    -0.271435    9.436881    12.452562    -2.317679    -7.009337    -12.292843    8.039250    0.628537    2.486293    9.616791    7.671592    5.440791    -3.227300    -4.922457    50.657349    -29.934227    -63.308483    18.905025    -99.251945    15.743585    -25.146441    14.401570    42.205994    24.285740    -49.049862    -16.845411    -2.124613    23.225861    -0.000000    0.000000    -0.000000    6.022329    17.906965    3.871689    5.729573    0.000003    -0.000001    5.729580    0.000000    0.000003    5.691581    8.956354    1.975856    5.621975    0.000000    0.000003    5.621961    -0.000002    0.000001    5.637114    -8.957186    0.636714    5.568152    0.000002    -0.000001    5.568151    -0.000003    0.000004    5.796232    -17.913816    1.300887    5.514345    0.000001    -0.000000    5.514349    0.000000    0.000002    6.888165    -0.614264    6.297732    27.787127    5.158358    21.572308    31.426613    8.886051    104.187050    86.604721    -42.101639    22.413580    -50.752102    21.716221    42.071358    0.671632    4.800913    -22.844942    -0.000000    0.000000    -0.000000    6.872940    17.878868    27.328657    6.539542    0.000000    -0.000000    6.539537    0.000003    -0.000003    16.452234    8.637189    12.184649    16.260445    0.000000    0.000003    16.260445    -0.000004    -0.000001    21.360569    -8.390885    8.996012    21.120884    0.000002    -0.000008    21.120897    0.000004    0.000001    27.130980    -16.128117    19.560211    25.981335    0.000003    -0.000002    25.981342    0.000004    0.000000    -17.186495    -37.900566    -3.059505    0.000004    69.103600    -0.000005    -2.981644    14.310601    8.682623    0.000000    -6.467803    0.000000    -17.517302    -27.006929    -11.206598    0.000002    55.206478    -0.000003    4.860309    -26.401100    7.634925    -0.000001    -0.579610    0.000002    
1.917619    77.549759    -13.928019    12.325960    1.586957    -6.495479    -0.059259    -8.794805    -0.387571    9.597513    12.498111    -2.474331    -6.771052    -12.290874    8.052044    0.927670    2.557514    9.569733    7.897440    5.378971    -3.222774    -4.765393    50.500961    -30.073654    -63.234833    19.297297    -99.463104    16.189690    -25.359907    14.688189    42.108776    24.428139    -48.920368    -16.742096    -2.080292    23.229652    -0.000000    0.000000    -0.000000    6.022315    17.906973    3.871682    5.729574    -0.000000    -0.000003    5.729577    -0.000005    0.000000    5.727542    8.955805    1.970252    5.657488    -0.000002    0.000003    5.657492    -0.000005    0.000002    5.691059    -8.956364    0.545297    5.621441    -0.000000    -0.000002    5.621434    0.000001    -0.000003    5.870862    -17.911589    1.124212    5.585394    0.000001    -0.000000    5.585390    -0.000000    -0.000001    7.214475    -0.386675    6.366206    28.022484    5.276163    21.526810    31.196360    8.656654    103.958694    86.044556    -41.814678    22.283579    -50.846119    21.689924    42.018948    0.797621    4.748013    -22.855417    -0.000000    0.000000    -0.000000    7.603070    17.851789    27.285524    7.234992    -0.000007    0.000000    7.235000    -0.000003    0.000008    17.024618    8.611655    12.189241    16.826921    0.000000    0.000001    16.826941    0.000018    0.000006    21.867134    -8.361964    9.069808    21.622900    0.000015    0.000004    21.622887    -0.000006    0.000005    27.581736    -16.065989    19.685196    26.418865    0.000002    0.000007    26.418858    -0.000001    -0.000004    -17.377079    -38.010071    -3.190387    -0.000002    69.440865    0.000002    -2.824411    14.238034    9.003439    -0.000000    -6.402221    -0.000000    -17.589188    -27.033579    -11.355172    0.000000    55.530895    -0.000001    4.835458    -26.599577    7.559352    0.000001    -0.588357    -0.000002    
1.992705    77.442368    -13.945338    12.243165    1.527938    -6.236433    -0.076429    -8.705439    -0.504942    9.822285    12.550335    -2.648085    -6.604338    -12.289021    8.013438    1.196810    2.682138    9.483907    8.134802    5.352816    -3.232626    -4.590664    50.357857    -30.260860    -63.381569    19.681082    -99.580353    16.489571    -25.711765    14.825129    41.927818    24.670176    -48.724548    -16.695818    -2.060452    23.231319    -0.000000    0.000000    -0.000000    6.022322    17.906971    3.871689    5.729572    0.000005    -0.000005    5.729578    -0.000002    0.000003    5.756868    8.955347    1.965695    5.686455    0.000000    0.000001    5.686450    0.000002    -0.000001    5.735046    -8.955687    0.484175    5.664890    -0.000000    -0.000001    5.664901    0.000001    0.000001    5.931728    -17.909746    1.006989    5.643336    0.000000    0.000001    5.643332    -0.000001    0.000001    7.616116    -0.211587    6.439065    28.159897    5.355032    21.429277    31.245079    8.568806    103.798027    85.916718    -41.890007    22.186590    -50.997879    21.631624    41.961536    0.902561    4.703920    -22.864063    -0.000000    0.000000    -0.000000    8.250243    17.825514    27.235229    7.851604    0.000003    -0.000005    7.851618    -0.000000    -0.000001    17.566996    8.586694    12.182121    17.363798    0.000003    -0.000005    17.363783    -0.000000    -0.000002    22.368574    -8.332676    9.142601    22.119888    -0.000004    -0.000004    22.119877    -0.000003    0.000001    28.052387    -16.000071    19.815180    26.875978    0.000004    -0.000011    26.875980    0.000001    0.000006    -17.614252    -38.109184    -3.398739    0.000001    69.792404    -0.000001    -2.710310    14.145557    9.318462    -0.000000    -6.255160    -0.000000    -17.677441    -27.051222    -11.531421    -0.000003    55.880318    0.000004    4.802565    -26.768255    7.457092    -0.000001    -0.609619    0.000000    
2.095117    77.310478    -13.972389    12.126259    1.460230    -5.874965    -0.099426    -8.594850    -0.665268    10.061839    12.590965    -2.865844    -6.360521    -12.277228    7.930414    1.584819    2.875942    9.328135    8.463212    5.306858    -3.239573    -4.361167    50.177280    -30.502310    -63.814533    20.208588    -99.640717    17.131731    -26.138144    15.011037    41.654198    25.014111    -48.465954    -16.648640    -2.040205    23.233009    -0.000000    0.000000    -0.000000    6.022312    17.906977    3.871684    5.729581    -0.000005    0.000002    5.729577    -0.000002    -0.000002    5.800505    8.954669    1.958899    5.729590    0.000000    0.000003    5.729580    0.000000    -0.000000    5.800513    -8.954672    0.444765    5.729577    0.000001    -0.000001    5.729573    -0.000002    0.000000    6.022321    -17.906982    0.935646    5.729579    0.000001    -0.000001    5.729581    -0.000000    -0.000000    8.219007    0.009859    6.580445    28.415501    5.463912    21.233564    31.332243    8.372992    103.452065    86.036591    -41.715782    22.027451    -51.203644    21.566572    41.861984    1.043193    4.644782    -22.875530    -0.000000    0.000000    -0.000000    9.025146    17.791243    27.240942    8.590174    -0.000007    0.000001    8.590177    -0.000003    0.000009    18.247849    8.554270    12.202009    18.037823    0.000007    -0.000002    18.037813    0.000002    -0.000008    23.015966    -8.293949    9.236201    22.761644    -0.000003    0.000002    22.761642    0.000004    0.000002    28.679422    -15.910584    19.987545    27.485455    0.000001    0.000005    27.485460    0.000001    -0.000003    -17.919403    -38.245468    -3.713933    -0.000002    70.241936    0.000002    -2.693733    13.976615    9.757555    0.000000    -5.894593    0.000000    -17.771746    -27.059401    -11.749052    -0.000001    56.295170    0.000002    4.754029    -26.923918    7.285838    0.000000    -0.654488    -0.000002    
